<svg width="123" height="94" viewBox="0 0 123 94" fill="none" xmlns="http://www.w3.org/2000/svg">
<g clip-path="url(#clip0_168_9)">
<path d="M7.09 43.87H14.2V42.22C14.2 40.02 14.64 37.92 15.44 36C16.27 34.01 17.48 32.21 18.99 30.71C20.49 29.21 22.29 27.99 24.28 27.16C26.2 26.36 28.3 25.92 30.5 25.92H58.79V25.78V15.65C58.33 15.48 57.89 15.27 57.47 15.03C56.88 14.68 56.34 14.26 55.86 13.78C55.12 13.04 54.52 12.15 54.11 11.16C53.72 10.21 53.5 9.16002 53.5 8.08002C53.5 6.99002 53.72 5.95002 54.11 5.00002C54.52 4.01002 55.12 3.12002 55.86 2.38002C56.6 1.64002 57.49 1.04002 58.48 0.63002C59.43 0.23002 60.48 0.0200195 61.56 0.0200195C62.64 0.0200195 63.69 0.24002 64.64 0.63002C65.63 1.04002 66.52 1.64002 67.26 2.38002C68 3.12002 68.6 4.01002 69.01 5.00002C69.4 5.95002 69.62 7.00002 69.62 8.08002C69.62 9.17002 69.4 10.21 69.01 11.16C68.6 12.15 68 13.04 67.26 13.78L67.22 13.82C66.75 14.28 66.22 14.69 65.65 15.03C65.23 15.28 64.79 15.49 64.33 15.65V25.78V25.92H92.62C94.82 25.92 96.92 26.36 98.84 27.16C100.84 27.99 102.63 29.2 104.13 30.71C105.63 32.21 106.85 34.01 107.68 36C108.48 37.92 108.92 40.02 108.92 42.22V43.87H115.78C116.73 43.87 117.65 44.06 118.49 44.41C119.36 44.77 120.14 45.3 120.79 45.95L120.83 45.99C121.47 46.64 121.98 47.4 122.33 48.25C122.68 49.09 122.87 50 122.87 50.96V69.88C122.87 70.83 122.68 71.75 122.33 72.59C121.97 73.45 121.44 74.24 120.79 74.89C119.51 76.17 117.73 76.97 115.78 76.97H108.91C108.88 79.08 108.44 81.11 107.67 82.96C106.84 84.96 105.63 86.75 104.12 88.25C102.62 89.75 100.82 90.97 98.83 91.8C96.91 92.6 94.81 93.04 92.61 93.04H30.5C28.3 93.04 26.2 92.6 24.28 91.8C22.28 90.97 20.49 89.76 18.99 88.25C17.49 86.75 16.27 84.95 15.44 82.96C14.67 81.11 14.23 79.08 14.2 76.97H7.09C6.14 76.97 5.22 76.78 4.38 76.43C3.51 76.07 2.73 75.54 2.08 74.89L2.04 74.85C1.4 74.2 0.89 73.44 0.54 72.59C0.19 71.75 0 70.83 0 69.88V50.96C0 50.01 0.19 49.09 0.54 48.25C0.9 47.38 1.43 46.6 2.08 45.95C2.73 45.3 3.51 44.77 4.38 44.41C5.22 44.06 6.13 43.87 7.09 43.87ZM47 74.3C46.86 74.19 46.74 74.07 46.63 73.93C46.3 73.53 46.13 73.07 46.12 72.6C46.11 72.13 46.26 71.66 46.57 71.25C46.68 71.11 46.8 70.98 46.95 70.86C47.47 70.43 48.16 70.2 48.84 70.19C49.52 70.18 50.2 70.38 50.74 70.79C52.6 72.22 54.44 73.26 56.26 73.95C58.06 74.63 59.84 74.95 61.6 74.93C63.37 74.91 65.16 74.54 66.99 73.85C68.84 73.15 70.7 72.1 72.59 70.75C73.15 70.35 73.84 70.17 74.52 70.2C75.2 70.23 75.88 70.47 76.39 70.92C76.52 71.04 76.64 71.17 76.75 71.32C77.05 71.74 77.19 72.22 77.16 72.69C77.13 73.16 76.94 73.62 76.6 74.01C76.48 74.14 76.34 74.27 76.18 74.38C73.81 76.09 71.43 77.39 69.02 78.28C66.6 79.17 64.15 79.64 61.67 79.67C59.18 79.7 56.72 79.28 54.27 78.39C51.84 77.51 49.42 76.16 47.04 74.33L47 74.3ZM40.77 43.72C41.37 43.72 41.97 43.78 42.54 43.9C43.12 44.02 43.69 44.19 44.24 44.42C44.8 44.65 45.33 44.93 45.82 45.26C46.3 45.58 46.75 45.94 47.15 46.34L47.21 46.39C47.63 46.81 48.01 47.27 48.34 47.77L48.36 47.8C48.68 48.28 48.96 48.8 49.18 49.35C49.41 49.9 49.58 50.47 49.7 51.05C49.81 51.63 49.88 52.22 49.88 52.82C49.88 53.42 49.82 54.02 49.7 54.59C49.58 55.17 49.41 55.74 49.18 56.3C48.95 56.86 48.67 57.39 48.34 57.88C48 58.39 47.62 58.85 47.21 59.26C46.38 60.09 45.37 60.77 44.24 61.23C43.69 61.46 43.12 61.63 42.53 61.75C41.95 61.86 41.36 61.92 40.76 61.92C40.16 61.92 39.56 61.86 38.99 61.75C38.41 61.63 37.84 61.46 37.28 61.23C36.72 61 36.19 60.72 35.7 60.39C35.19 60.05 34.73 59.67 34.32 59.26C33.9 58.84 33.52 58.38 33.19 57.88L33.17 57.85C32.85 57.37 32.57 56.85 32.35 56.3C32.12 55.75 31.95 55.18 31.83 54.6C31.72 54.02 31.66 53.43 31.66 52.83C31.66 52.23 31.72 51.63 31.83 51.06C31.95 50.48 32.12 49.91 32.35 49.36C32.58 48.8 32.86 48.27 33.19 47.78C33.53 47.27 33.91 46.81 34.32 46.4C34.74 45.98 35.2 45.6 35.7 45.27L35.73 45.25C36.21 44.93 36.73 44.65 37.28 44.43C37.83 44.2 38.4 44.03 38.98 43.91C39.57 43.78 40.17 43.72 40.77 43.72ZM42.73 48.1C42.43 47.98 42.11 47.88 41.78 47.81C41.46 47.75 41.12 47.71 40.77 47.71C40.42 47.71 40.08 47.74 39.76 47.81C39.42 47.88 39.1 47.97 38.81 48.1C38.5 48.23 38.21 48.38 37.93 48.57C37.66 48.75 37.4 48.97 37.15 49.22C36.9 49.47 36.69 49.73 36.5 50C36.31 50.28 36.16 50.57 36.03 50.87C35.91 51.17 35.81 51.49 35.74 51.82C35.68 52.14 35.64 52.48 35.64 52.83C35.64 53.18 35.67 53.52 35.74 53.84C35.81 54.18 35.9 54.5 36.03 54.79C36.16 55.1 36.31 55.39 36.5 55.66C36.68 55.93 36.9 56.19 37.15 56.44C37.4 56.69 37.66 56.9 37.93 57.09C38.2 57.27 38.5 57.43 38.81 57.56L38.84 57.58C39.13 57.7 39.43 57.79 39.76 57.85C40.08 57.91 40.42 57.95 40.77 57.95C41.12 57.95 41.46 57.92 41.78 57.85C42.12 57.78 42.43 57.69 42.73 57.57C43.04 57.44 43.33 57.28 43.61 57.1C43.88 56.92 44.14 56.7 44.39 56.45C44.64 56.2 44.85 55.94 45.04 55.67C45.23 55.39 45.38 55.1 45.51 54.8C45.63 54.5 45.73 54.18 45.8 53.85C45.86 53.53 45.9 53.19 45.9 52.84C45.9 52.49 45.87 52.15 45.8 51.83C45.73 51.49 45.64 51.17 45.51 50.88C45.38 50.57 45.23 50.28 45.04 50C44.85 49.72 44.64 49.46 44.4 49.22L44.35 49.17C44.12 48.95 43.88 48.75 43.62 48.58C43.34 48.38 43.04 48.22 42.73 48.1ZM82.35 43.72C82.95 43.72 83.55 43.78 84.12 43.9C84.7 44.02 85.27 44.19 85.82 44.42C86.38 44.65 86.91 44.93 87.4 45.26C87.87 45.58 88.31 45.93 88.71 46.33C88.73 46.35 88.76 46.37 88.78 46.39C89.2 46.81 89.58 47.27 89.91 47.77L89.93 47.8C90.25 48.28 90.53 48.8 90.75 49.35C90.98 49.9 91.15 50.47 91.27 51.05C91.38 51.63 91.44 52.22 91.44 52.82C91.44 53.42 91.38 54.02 91.27 54.59C91.15 55.17 90.98 55.74 90.75 56.3C90.52 56.86 90.24 57.39 89.91 57.88C89.57 58.39 89.19 58.85 88.78 59.26C88.36 59.68 87.9 60.06 87.4 60.39L87.37 60.41C86.88 60.73 86.37 61.01 85.82 61.23C85.27 61.46 84.7 61.63 84.11 61.75C83.53 61.86 82.94 61.92 82.34 61.92C81.74 61.92 81.14 61.86 80.57 61.75C79.99 61.63 79.42 61.46 78.86 61.23C78.29 60.99 77.76 60.71 77.28 60.39L77.23 60.35C76.75 60.02 76.3 59.66 75.9 59.26C75.48 58.84 75.1 58.38 74.77 57.88L74.75 57.85C74.43 57.37 74.15 56.85 73.93 56.3C73.7 55.75 73.53 55.18 73.41 54.6C73.3 54.02 73.23 53.43 73.23 52.83C73.23 52.23 73.29 51.63 73.41 51.06C73.53 50.48 73.7 49.91 73.93 49.36C74.16 48.8 74.44 48.27 74.77 47.78C75.11 47.27 75.49 46.81 75.9 46.4C76.31 45.99 76.78 45.61 77.28 45.27C77.77 44.94 78.3 44.66 78.86 44.42C79.41 44.19 79.98 44.02 80.56 43.9C81.16 43.78 81.75 43.72 82.35 43.72ZM84.32 48.1C84.02 47.98 83.7 47.88 83.37 47.81C83.05 47.75 82.71 47.71 82.36 47.71C82.01 47.71 81.67 47.74 81.35 47.81C81.01 47.88 80.69 47.97 80.4 48.1C80.09 48.23 79.8 48.38 79.52 48.57C79.25 48.75 78.99 48.97 78.74 49.22C78.49 49.47 78.28 49.73 78.09 50C77.9 50.28 77.75 50.57 77.62 50.87C77.5 51.17 77.4 51.49 77.33 51.82C77.27 52.14 77.23 52.48 77.23 52.83C77.23 53.18 77.26 53.52 77.33 53.84C77.4 54.18 77.49 54.5 77.62 54.79C77.75 55.1 77.9 55.39 78.09 55.66C78.27 55.93 78.49 56.19 78.74 56.44C78.99 56.69 79.25 56.9 79.52 57.09C79.79 57.27 80.09 57.43 80.4 57.56L80.43 57.58C80.72 57.7 81.02 57.79 81.35 57.85C81.67 57.91 82.01 57.95 82.36 57.95C82.71 57.95 83.05 57.92 83.37 57.85C83.71 57.78 84.02 57.69 84.32 57.57C84.63 57.44 84.92 57.28 85.2 57.1C85.48 56.91 85.74 56.7 85.98 56.46C86.23 56.21 86.44 55.95 86.63 55.68C86.82 55.4 86.97 55.11 87.1 54.81C87.22 54.51 87.32 54.19 87.39 53.86C87.45 53.54 87.49 53.2 87.49 52.85C87.49 52.5 87.46 52.16 87.39 51.84C87.32 51.5 87.23 51.18 87.1 50.89C86.97 50.58 86.82 50.29 86.63 50.01C86.44 49.73 86.23 49.47 85.99 49.23L85.94 49.18C85.71 48.96 85.47 48.76 85.21 48.59C84.92 48.38 84.63 48.22 84.32 48.1ZM18.19 45.87V76.74C18.19 78.4 18.52 79.98 19.12 81.43C19.75 82.93 20.66 84.29 21.8 85.43C22.94 86.57 24.3 87.49 25.8 88.11C27.24 88.71 28.83 89.04 30.49 89.04H92.62C94.28 89.04 95.86 88.71 97.31 88.11C98.81 87.48 100.17 86.57 101.31 85.43C102.45 84.29 103.37 82.93 103.99 81.43C104.59 79.99 104.92 78.4 104.92 76.74V42.22C104.92 40.56 104.59 38.97 103.99 37.53C103.36 36.03 102.45 34.67 101.31 33.53C100.17 32.39 98.81 31.47 97.31 30.85C95.87 30.25 94.28 29.92 92.62 29.92H30.5C28.84 29.92 27.26 30.25 25.81 30.85C24.31 31.48 22.95 32.39 21.81 33.53C20.67 34.67 19.75 36.03 19.13 37.53C18.53 38.97 18.2 40.56 18.2 42.22V45.87H18.19ZM14.2 47.86H7.09C6.67 47.86 6.27 47.94 5.91 48.09C5.53 48.25 5.19 48.48 4.9 48.77L4.86 48.8C4.59 49.08 4.37 49.41 4.22 49.77C4.07 50.13 3.99 50.53 3.99 50.95V69.87C3.99 70.29 4.07 70.69 4.22 71.05C4.38 71.43 4.61 71.77 4.9 72.06C5.46 72.62 6.23 72.97 7.08 72.97H14.19V47.86H14.2ZM115.79 47.86H108.93V72.97H115.79C116.21 72.97 116.61 72.89 116.97 72.74C117.35 72.58 117.69 72.35 117.98 72.06C118.27 71.77 118.5 71.43 118.66 71.05C118.81 70.69 118.89 70.29 118.89 69.87V50.96C118.89 50.54 118.81 50.14 118.66 49.78C118.5 49.4 118.27 49.06 117.98 48.77C117.69 48.48 117.35 48.25 116.97 48.09C116.61 47.95 116.21 47.86 115.79 47.86Z" fill="white"/>
</g>
<defs>
<clipPath id="clip0_168_9">
<rect width="122.88" height="93.04" fill="white"/>
</clipPath>
</defs>
</svg>
